<svg width="39.598" height="43.064" viewBox="0 0 39.598 43.064" xmlns="http://www.w3.org/2000/svg" xmlns:xlink="http://www.w3.org/1999/xlink" overflow="hidden"><path d="M31.113 13.458 31.113 10.766C30.951 4.67392 25.8926-0.13987 19.8-2.05994e-07 13.7066-0.14099 8.647 4.67312 8.485 10.766L8.485 13.458 0 13.458 0 36.336C0.0965594 40.1458 3.26107 43.1573 7.071 43.065L32.527 43.065C36.3377 43.1584 39.5034 40.1466 39.6 36.336L39.6 13.458ZM14.142 10.766C14.2227 7.71924 16.753 5.31195 19.8 5.383 22.8466 5.31251 25.3763 7.71964 25.457 10.766L25.457 13.458 14.142 13.458ZM28.285 20.859C27.1702 20.8038 26.3112 19.8553 26.3665 18.7405 26.4217 17.6257 27.3702 16.7667 28.485 16.822 29.5608 16.8752 30.4057 17.7629 30.406 18.84 30.3771 19.9829 29.4279 20.8864 28.285 20.859ZM11.314 20.859C10.1992 20.8038 9.34025 19.8553 9.39548 18.7405 9.4507 17.6257 10.3992 16.7667 11.514 16.822 12.5898 16.8752 13.4347 17.7629 13.435 18.84 13.4061 19.9829 12.4569 20.8864 11.314 20.859Z" id="Icon_awesome-shopping-bag" fill="#FD5060"/><path d="M4.076 15.746 0.176 10.781C-0.0581637 10.4591-0.0581637 10.0229 0.176 9.701L1.025 8.621C1.18506 8.38656 1.50488 8.32626 1.73932 8.48632 1.79221 8.52243 1.83789 8.56811 1.874 8.621L4.5 11.965 10.127 4.8C10.2871 4.56556 10.6069 4.50526 10.8413 4.66532 10.8942 4.70143 10.9399 4.74711 10.976 4.8L11.825 5.88C12.0592 6.20192 12.0592 6.63808 11.825 6.96L4.925 15.745C4.76521 15.9796 4.44547 16.0403 4.21084 15.8805 4.1579 15.8445 4.11217 15.7988 4.076 15.746Z" id="Icon_awesome-check" fill="#FFFFFF" transform="translate(13.799 21.211)"/></svg>