<svg width="33.552" height="41.5" viewBox="0 0 33.552 41.5" xmlns="http://www.w3.org/2000/svg" xmlns:xlink="http://www.w3.org/1999/xlink" overflow="hidden"><path d="M26.362 12.969 26.362 10.375C26.362 4.654 22.062 0 16.776 0 11.49 0 7.19 4.654 7.19 10.375L7.19 12.969 0 12.969 0 35.016C-0.130752 38.4589 2.54853 41.3586 5.991 41.5L27.56 41.5C31.0025 41.3587 33.6818 38.4589 33.551 35.016L33.551 12.969ZM11.983 10.375C11.8821 7.62201 14.0236 5.30442 16.776 5.188 19.5284 5.30442 21.6699 7.62201 21.569 10.375L21.569 12.969 11.983 12.969ZM23.966 20.1C22.8917 20.1834 21.9532 19.3801 21.8699 18.3059 21.7865 17.2316 22.5897 16.2931 23.664 16.2097 24.7383 16.1263 25.6768 16.9296 25.7601 18.0039 25.7641 18.0541 25.766 18.1046 25.766 18.155 25.8049 19.1887 24.9996 20.0588 23.966 20.1ZM9.587 20.1C8.51253 20.0191 7.70704 19.0826 7.78789 18.0081 7.86028 17.0461 8.62496 16.2814 9.587 16.209 10.6615 16.2899 11.467 17.2264 11.3861 18.3009 11.3137 19.2629 10.549 20.0276 9.587 20.1Z" id="Icon_awesome-shopping-bag" fill="#9D3F5A"/></svg>