<svg width="49.73" height="44.936" viewBox="0 0 49.73 44.936" xmlns="http://www.w3.org/2000/svg" xmlns:xlink="http://www.w3.org/1999/xlink" overflow="hidden"><path d="M50.293 23.167C50.293 10.68 39.164 0.567 25.428 0.567 11.692 0.567 0.562 10.68 0.562 23.167 0.562 34.449 9.655 43.8 21.542 45.5L21.542 29.7 15.226 29.7 15.226 23.167 21.543 23.167 21.543 18.187C21.543 12.522 25.253 9.393 30.935 9.393 32.7984 9.41628 34.6582 9.56361 36.502 9.834L36.502 15.394 33.364 15.394C30.276 15.394 29.312 17.137 29.312 18.924L29.312 23.167 36.212 23.167 35.112 29.701 29.313 29.701 29.313 45.5C41.2 43.8 50.293 34.449 50.293 23.167Z" id="Icon_awesome-facebook" fill="#FFFFFF" transform="translate(-0.563 -0.563)"/></svg>