<svg width="38.785" height="38.65" viewBox="0 0 38.785 38.65" xmlns="http://www.w3.org/2000/svg" xmlns:xlink="http://www.w3.org/1999/xlink" overflow="hidden"><path d="M38.785 20.34C38.785 31.366 31.085 39.213 19.711 39.213 8.94208 39.33 0.117336 30.6948 0.000375456 19.9259 0.000238158 19.9133 0.000113153 19.9006 4.42504e-07 19.888 0.0960211 9.11888 8.90396 0.466616 19.6731 0.562636 19.6854 0.562746 19.6977 0.562867 19.71 0.563 24.5995 0.500403 29.328 2.30958 32.927 5.62L27.562 10.677C20.545 4.038 7.495 9.025 7.495 19.888 7.50658 26.6273 12.9707 32.0856 19.71 32.09 27.51 32.09 30.439 26.604 30.9 23.76L19.71 23.76 19.71 17.114 38.475 17.114C38.6832 18.1767 38.787 19.2571 38.785 20.34Z" id="Icon_awesome-google" fill="#FFFFFF" transform="matrix(1 0 0 1 0 -0.563)"/></svg>