<svg width="46.304" height="44.936" viewBox="0 0 46.304 44.936" xmlns="http://www.w3.org/2000/svg" xmlns:xlink="http://www.w3.org/1999/xlink" overflow="hidden"><path d="M23.152 13.185C16.7022 13.08 11.3885 18.2236 11.2835 24.6734 11.2833 24.6843 11.2831 24.6951 11.283 24.706 11.37 31.1561 16.6693 36.3144 23.1194 36.2275 23.1303 36.2273 23.1411 36.2272 23.152 36.227 29.6018 36.332 34.9155 31.1884 35.0205 24.7386 35.0207 24.7277 35.0209 24.7169 35.021 24.706 34.934 18.2559 29.6347 13.0976 23.1846 13.1845 23.1737 13.1847 23.1629 13.1848 23.152 13.185ZM23.152 32.196C18.9565 32.2495 15.5072 28.9012 15.436 24.706 15.5644 20.4443 19.1232 17.0936 23.3849 17.2219 27.4663 17.3449 30.7461 20.6247 30.869 24.706 30.7999 28.9032 27.3494 32.254 23.152 32.2ZM38.275 12.713C38.3208 14.2421 37.1184 15.5189 35.5892 15.5648 34.0601 15.6106 32.7833 14.4081 32.7375 12.879 32.6916 11.3499 33.8941 10.0731 35.4232 10.0272 35.4512 10.0264 35.4791 10.026 35.507 10.026 37.0101 10.0005 38.2493 11.1983 38.2748 12.7014 38.2749 12.7053 38.2749 12.7091 38.275 12.713ZM46.136 15.44C45.96 11.84 45.113 8.652 42.397 6.025 39.681 3.398 36.4 2.576 32.7 2.4 28.878 2.189 17.422 2.189 13.6 2.4 9.9 2.57 6.617 3.393 3.9 6.02 1.183 8.647 0.343 11.831 0.157 15.431-0.06 19.141-0.06 30.261 0.157 33.971 0.333 37.571 1.18 40.759 3.896 43.386 6.612 46.013 9.887 46.835 13.596 47.016 17.418 47.227 28.874 47.227 32.696 47.016 36.404 46.846 39.689 46.023 42.396 43.386 45.103 40.749 45.949 37.57 46.135 33.971 46.352 30.261 46.352 19.151 46.135 15.441ZM41.2 37.951C40.3879 39.9225 38.7947 41.4689 36.8 42.222 33.753 43.395 26.522 43.122 23.154 43.122 19.786 43.122 12.545 43.383 9.508 42.222 7.51326 41.4689 5.92008 39.9225 5.108 37.951 3.899 34.993 4.178 27.974 4.178 24.705 4.178 21.436 3.909 14.405 5.108 11.459 5.92008 9.48755 7.51326 7.94108 9.508 7.188 12.555 6.015 19.786 6.288 23.154 6.288 26.522 6.288 33.763 6.027 36.8 7.188 38.7947 7.94108 40.3879 9.48755 41.2 11.459 42.409 14.417 42.13 21.436 42.13 24.705 42.13 27.974 42.407 35 41.2 37.951Z" id="Icon_awesome-instagram" fill="#FFFFFF" transform="translate(0.005 -2.238)"/></svg>