<svg width="30.199" height="42.182" viewBox="0 0 30.199 42.182" xmlns="http://www.w3.org/2000/svg" xmlns:xlink="http://www.w3.org/1999/xlink" overflow="hidden"><path d="M22.6 3C14.3588 2.90178 7.59844 9.50294 7.50022 17.7441 7.50014 17.7507 7.50007 17.7574 7.5 17.764 7.5 28.837 22.6 45.182 22.6 45.182 22.6 45.182 37.7 28.836 37.7 17.764 37.6128 9.52272 30.8612 2.91255 22.6199 2.99978 22.6133 2.99985 22.6066 2.99992 22.6 3ZM22.6 23.036C19.688 22.9703 17.3806 20.5564 17.4463 17.6443 17.5121 14.7323 19.926 12.425 22.838 12.4907 25.7035 12.5554 27.9928 14.8968 27.993 17.763 27.9584 20.7077 25.5447 23.0677 22.6 23.036Z" id="Icon_material-location-on" fill="#AA3053" transform="translate(-7.5 -3)"/></svg>