<svg width="18" height="18.417" viewBox="0 0 18 18.417" xmlns="http://www.w3.org/2000/svg" xmlns:xlink="http://www.w3.org/1999/xlink" overflow="hidden"><path d="M17.486 13.015 13.549 11.288C13.2027 11.1376 12.7986 11.2394 12.565 11.536L10.821 13.716C8.06744 12.3789 5.86487 10.1254 4.591 7.342L6.721 5.558C7.01363 5.31167 7.11208 4.90368 6.964 4.551L5.277 0.522C5.11927 0.142244 4.71106-0.0688257 4.31 0.022L0.654 0.885C0.267127 0.980057-0.00362274 1.32864-1.57356e-08 1.727-0.106071 10.8391 7.19474 18.3119 16.3068 18.4179 16.3085 18.418 16.3103 18.418 16.312 18.418 16.7091 18.4152 17.0512 18.1372 17.135 17.749L17.979 14.008C18.0704 13.602 17.8647 13.1876 17.486 13.015Z" id="Icon_awesome-phone-alt" fill="#FFFFFF"/></svg>