<svg width="44.397" height="38.65" viewBox="0 0 44.397 38.65" xmlns="http://www.w3.org/2000/svg" xmlns:xlink="http://www.w3.org/1999/xlink" overflow="hidden"><path d="M39.833 13.013C39.861 13.436 39.861 13.859 39.861 14.281 39.861 27.174 30.706 42.031 13.972 42.031 8.97706 42.0315 4.10154 40.5038 1.2207e-07 37.653 0.730081 37.7393 1.46486 37.7797 2.2 37.774 6.34164 37.769 10.3467 36.2921 13.5 33.607 9.49512 33.4417 6.05599 30.7075 4.992 26.843 5.55968 26.9394 6.13421 26.9899 6.71 26.994 7.51799 26.9906 8.32185 26.8786 9.1 26.661 4.72236 25.5781 1.68635 21.5972 1.8 17.089L1.8 16.968C3.04607 17.7177 4.46011 18.1434 5.913 18.206 3.33166 16.3095 1.82157 13.2859 1.856 10.083 1.85008 8.36413 2.27795 6.67156 3.1 5.162 7.54397 11.1621 14.4083 14.8965 21.86 15.368 21.714 14.6322 21.6386 13.8841 21.635 13.134 21.635 7.759 25.692 3.381 30.735 3.381 33.2932 3.39315 35.7197 4.51731 37.383 6.461 39.4354 6.03448 41.3926 5.23636 43.158 4.106 42.5106 6.31849 41.0914 8.22554 39.158 9.481 40.9736 9.25807 42.7422 8.74839 44.398 7.971 43.1698 9.89572 41.627 11.6004 39.834 13.014Z" id="Icon_awesome-twitter" fill="#AA3053" transform="matrix(1 0 0 1 0 -3.381)"/></svg>