<svg width="19.567" height="21.332" viewBox="0 0 19.567 21.332" xmlns="http://www.w3.org/2000/svg" xmlns:xlink="http://www.w3.org/1999/xlink" overflow="hidden"><path d="M16.636 5.35C14.8938 3.39047 12.401 2.2635 9.779 2.25 4.433 2.25 0.079 6.993 0.079 12.821 0.0742507 14.6615 0.518051 16.4755 1.372 18.106L0 23.582 5.141 22.111C6.54096 22.9512 8.14229 23.3966 9.775 23.4L9.775 23.4C15.117 23.4 19.563 18.657 19.563 12.829 19.555 10.058 18.511 7.39027 16.636 5.35ZM9.779 21.616C8.32082 21.6133 6.89466 21.1882 5.673 20.392L5.38 20.202 2.331 21.073 3.143 17.83 2.953 17.5C2.13937 16.0763 1.71449 14.4637 1.721 12.824 1.721 7.981 5.337 4.039 9.784 4.039 11.9637 4.04859 14.0364 4.98529 15.484 6.615 17.0486 8.30731 17.9227 10.5243 17.934 12.829 17.934 17.676 14.226 21.619 9.784 21.619ZM14.199 15.035C13.959 14.902 12.766 14.264 12.544 14.178 12.322 14.092 12.16 14.045 11.998 14.311 11.836 14.577 11.373 15.168 11.229 15.349 11.085 15.53 10.945 15.549 10.705 15.416 9.27623 14.7791 8.11074 13.6691 7.405 12.273 7.156 11.806 7.654 11.84 8.117 10.83 8.1811 10.6808 8.17298 10.5104 8.095 10.368 8.034 10.235 7.549 8.935 7.348 8.406 7.147 7.877 6.948 7.963 6.802 7.954 6.656 7.945 6.502 7.944 6.339 7.944 6.08588 7.95379 5.84977 8.07404 5.693 8.273 5.13066 8.86535 4.82607 9.65648 4.846 10.473 4.92041 11.4568 5.26165 12.4017 5.833 13.206 6.84492 14.8736 8.2725 16.2498 9.976 17.2 10.8393 17.752 11.8679 17.9861 12.885 17.862 13.5851 17.6975 14.1805 17.2395 14.519 16.605 14.6772 16.2061 14.7256 15.772 14.659 15.348 14.6 15.23 14.439 15.164 14.2 15.035Z" id="Icon_awesome-whatsapp" fill="#FFFFFF" transform="matrix(1 0 0 1 0 -2.25)"/></svg>